#!OML:ASF I:\Actors\actors\Patient Classification 2\Patient 1\Session 1\actor1.ASF
:FULLY-SPECIFIED
:DEGREES
369
root -0.79958 18.8162 5.05669 10.6158 0.0436525 -0.817067
lowerback 23.6366 -0.181952 2.01169
upperback 6.77706 0.288356 0.83673
thorax -5.70658 0.128958 -0.323765
lowerneck -19.3463 -1.60301 -2.03275
upperneck 15.8949 -2.09113 2.3959
head 8.15773 -0.863266 0.873689
rclavicle 5.76476e-015 8.54774e-015
rhumerus -19.6584 46.2729 -101.053
rradius 134.632
rwrist -1.4076
rhand -25.6076 -28.5513
rfingers 7.12502
rthumb 0.9247 -58.529
lclavicle 5.76476e-015 8.54774e-015
lhumerus -1.7186 -44.2801 98.1141
lradius 127.311
lwrist 22.256
lhand -21.312 -39.3865
lfingers 7.12502
lthumb 5.07307 -9.46726
rfemur -7.2809 0.684452 15.329
rtibia 3.38203
rfoot -15.5797 -14.1972
rtoes -10.5756
lfemur -21.8901 -1.61813 -12.4702
ltibia 26.6612
lfoot -15.9412 7.50901
ltoes -57.0468
370
root -0.789942 18.8164 5.06901 10.6489 0.349899 -0.921679
lowerback 23.7086 -0.255485 2.13642
upperback 6.65731 0.23554 0.930307
thorax -5.8746 0.101153 -0.278895
lowerneck -19.5094 -1.62959 -1.9624
upperneck 16.1993 -2.13565 2.32175
head 8.28792 -0.885146 0.831228
rclavicle -2.78299e-015 -4.17448e-015
rhumerus -21.7047 47.179 -102.173
rradius 134.606
rwrist 0.175585
rhand -27.7206 -27.4861
rfingers 7.12502
rthumb -1.11611 -57.4629
lclavicle -2.78299e-015 -4.17448e-015
lhumerus -1.4214 -44.1086 97.6308
lradius 127.412
lwrist 23.2022
lhand -21.7037 -39.8108
lfingers 7.12502
lthumb 4.69483 -9.88278
rfemur -7.14724 0.382766 15.4586
rtibia 3.22064
rfoot -15.5471 -14.1825
rtoes -10.306
lfemur -21.9574 -1.7863 -12.3605
ltibia 26.6568
lfoot -15.9585 7.4492
ltoes -56.987
371
root -0.776694 18.8178 5.08268 10.6316 0.644449 -1.00957
lowerback 23.8225 -0.378483 2.27041
upperback 6.55434 0.119239 0.976998
thorax -6.04661 0.0427632 -0.271866
lowerneck -19.6267 -1.6044 -1.73388
upperneck 16.3876 -2.13939 2.17859
head 8.36774 -0.885887 0.744784
rclavicle 3.97569e-015 1.64991e-014
rhumerus -22.3489 47.2941 -102.199
rradius 134.63
rwrist 0.890785
rhand -28.7952 -26.9122
rfingers 7.12502
rthumb -2.15388 -56.8811
lclavicle 3.97569e-015 1.64991e-014
lhumerus -2.05186 -44.889 97.4953
lradius 127.567
lwrist 23.0766
lhand -22.3291 -40.2
lfingers 7.12502
lthumb 4.09094 -10.2595
rfemur -6.8709 0.0924251 15.5527
rtibia 2.89573
rfoot -15.4318 -14.2409
rtoes -10.2188
lfemur -21.9724 -1.94992 -12.2891
ltibia 26.6902
lfoot -15.9913 7.36735
ltoes -56.9212
372
root -0.760947 18.8194 5.0957 10.6127 0.878548 -1.06245
lowerback 23.7981 -0.447769 2.26174
upperback 6.52986 0.0370927 1.07968
thorax -6.06298 0.00318213 -0.132194
lowerneck -19.6088 -1.57697 -1.551
upperneck 16.4062 -2.12404 2.02763
head 8.36675 -0.883095 0.666087
rclavicle 6.16232e-015 2.98177e-015
rhumerus -21.7653 46.5206 -101.325
rradius 134.773
rwrist 0.837193
rhand -28.2144 -27.1198
rfingers 7.12502
rthumb -1.593 -57.0936
lclavicle 6.16232e-015 2.98177e-015
lhumerus -3.35368 -46.4339 97.8862
lradius 127.7
lwrist 22.865
lhand -22.6969 -40.9119
lfingers 7.12502
lthumb 3.73577 -10.9649
rfemur -6.64182 -0.14695 15.5921
rtibia 2.66116
rfoot -15.2839 -14.3209
rtoes -10.6827
lfemur -21.9729 -2.0617 -12.272
ltibia 26.7217
lfoot -16.0116 7.26592
ltoes -56.7897
373
root -0.74547 18.8197 5.10554 10.6022 1.0253 -1.09024
lowerback 23.652 -0.505875 2.19011
upperback 6.57655 -0.0525428 1.1656
thorax -5.9396 -0.0383497 0.0263614
lowerneck -19.4741 -1.55437 -1.47296
upperneck 16.2763 -2.10375 1.97379
head 8.29756 -0.875835 0.6385
rclavicle 1.98785e-015 -1.19271e-014
rhumerus -19.9333 45.4492 -99.5962
rradius 134.803
rwrist -0.639881
rhand -27.7931 -27.0815
rfingers 7.12502
rthumb -1.18604 -57.0579
lclavicle 1.98785e-015 -1.19271e-014
lhumerus -5.29376 -48.4117 98.71
lradius 127.735
lwrist 22.7994
lhand -23.044 -41.7298
lfingers 7.12502
lthumb 3.40058 -11.7772
rfemur -6.56003 -0.307053 15.5976
rtibia 2.66363
rfoot -15.2028 -14.3323
rtoes -11.1759
lfemur -21.9869 -2.06288 -12.2935
ltibia 26.7554
lfoot -16.0012 7.13097
ltoes -56.7064
374
root -0.729816 18.8194 5.11317 10.5708 1.05905 -1.11929
lowerback 23.5986 -0.557212 2.01239
upperback 6.58541 -0.149732 1.31525
thorax -5.90396 -0.0844614 0.31711
lowerneck -19.2923 -1.50055 -1.5661
upperneck 16.1741 -1.98728 1.89065
head 8.22932 -0.837278 0.641403
rclavicle -4.96962e-015 -8.34896e-015
rhumerus -16.5751 44.175 -96.5827
rradius 134.643
rwrist -2.15262
rhand -27.0228 -28.4905
rfingers 7.12502
rthumb -0.442115 -58.4698
lclavicle -4.96962e-015 -8.34896e-015
lhumerus -7.85996 -50.3006 100.208
lradius 127.732
lwrist 22.9997
lhand -22.9057 -41.9175
lfingers 7.12502
lthumb 3.53418 -11.9671
rfemur -6.60426 -0.356704 15.5856
rtibia 2.90062
rfoot -15.2533 -14.2363
rtoes -11.1634
lfemur -21.9674 -1.97995 -12.3339
ltibia 26.7936
lfoot -15.9736 7.02907
ltoes -56.8065
375
root -0.711929 18.8192 5.11973 10.5715 0.952599 -1.17463
lowerback 23.4546 -0.561378 1.918
upperback 6.62289 -0.172944 1.44332
thorax -5.78982 -0.0952032 0.514986
lowerneck -19.2322 -1.47779 -1.78512
upperneck 16.1553 -1.88871 1.86054
head 8.21253 -0.80823 0.679716
rclavicle -7.95139e-016 1.39149e-015
rhumerus -13.1976 42.3533 -94.0206
rradius 134.436
rwrist -3.33837
rhand -26.9107 -29.1652
rfingers 7.12502
rthumb -0.333868 -59.1447
lclavicle -7.95139e-016 1.39149e-015
lhumerus -10.3215 -52.0857 102
lradius 127.638
lwrist 23.3983
lhand -22.2966 -41.6682
lfingers 7.12502
lthumb 4.12231 -11.7284
rfemur -6.74181 -0.267951 15.5718
rtibia 3.17689
rfoot -15.3404 -14.1498
rtoes -11.0019
lfemur -21.9554 -1.85258 -12.3595
ltibia 26.8433
lfoot -15.9962 7.0174
ltoes -56.9057
376
root -0.690307 18.8191 5.12704 10.6189 0.707536 -1.19133
lowerback 23.1952 -0.518813 1.92464
upperback 6.6869 -0.125843 1.4655
thorax -5.5882 -0.07191 0.519635
lowerneck -19.2797 -1.51079 -2.009
upperneck 16.1885 -1.88115 1.9149
head 8.23454 -0.812718 0.735261
rclavicle -9.74045e-015 2.68359e-014
rhumerus -9.79579 40.4392 -91.713
rradius 133.907
rwrist -4.29621
rhand -27.671 -29.6473
rfingers 7.12502
rthumb -1.06817 -59.6243
lclavicle -9.74045e-015 2.68359e-014
lhumerus -12.441 -53.7827 103.694
lradius 127.383
lwrist 23.4101
lhand -21.9295 -41.7428
lfingers 7.12502
lthumb 4.47688 -11.8101
rfemur -6.98215 -0.0567945 15.4834
rtibia 3.50463
rfoot -15.4351 -14.0905
rtoes -10.8971
lfemur -21.9611 -1.71956 -12.439
ltibia 26.8977
lfoot -16.0747 7.09056
ltoes -56.871
377
root -0.668995 18.8178 5.13274 10.6391 0.380806 -1.13621
lowerback 22.961 -0.452955 1.92976
upperback 6.78134 -0.0548426 1.41191
thorax -5.36623 -0.0365133 0.437234
lowerneck -19.3861 -1.54621 -2.23689
upperneck 16.2304 -1.88527 2.02257
head 8.27062 -0.816999 0.807706
rclavicle 8.94531e-015 6.95746e-015
rhumerus -6.96786 38.9168 -90.0678
rradius 133.449
rwrist -5.00931
rhand -26.9963 -30.6229
rfingers 7.12502
rthumb -0.416511 -60.6022
lclavicle 8.94531e-015 6.95746e-015
lhumerus -13.869 -55.1706 104.887
lradius 127.222
lwrist 24.2758
lhand -20.988 -42.1512
lfingers 7.12502
lthumb 5.3859 -12.2396
rfemur -7.28245 0.220777 15.3051
rtibia 3.97207
rfoot -15.5836 -13.9804
rtoes -10.77
lfemur -21.9193 -1.54667 -12.6037
ltibia 26.9343
lfoot -16.1294 7.1306
ltoes -56.7471
378
root -0.655136 18.8145 5.13261 10.5732 0.0321798 -1.03592
lowerback 22.8726 -0.348316 1.93084
upperback 6.89188 0.0635744 1.27546
thorax -5.20013 0.0222829 0.256623
lowerneck -19.4595 -1.6001 -2.39826
upperneck 16.2229 -1.93765 2.15274
head 8.2851 -0.837694 0.870884
rclavicle 1.39149e-015 -1.27222e-014
rhumerus -4.83593 38.1052 -88.928
rradius 133.075
rwrist -5.69915
rhand -28.7202 -29.6905
rfingers 7.12502
rthumb -2.08146 -59.6601
lclavicle 1.39149e-015 -1.27222e-014
lhumerus -13.6962 -55.1153 104.775
lradius 127.173
lwrist 24.1528
lhand -21.3707 -41.5004
lfingers 7.12502
lthumb 5.01641 -11.5798
rfemur -7.54962 0.52183 15.1074
rtibia 4.51938
rfoot -15.7668 -13.8361
rtoes -10.8541
lfemur -21.7855 -1.29949 -12.8029
ltibia 26.9417
lfoot -16.1572 7.10353
ltoes -56.6786
379
root -0.649731 18.8109 5.12879 10.4716 -0.309889 -0.899423
lowerback 22.9034 -0.187985 1.94701
upperback 6.96113 0.255896 1.05537
thorax -5.13737 0.116943 -0.0413255
lowerneck -19.4074 -1.69823 -2.38628
upperneck 16.1372 -2.09256 2.24064
head 8.25187 -0.901165 0.87897
rclavicle 5.1684e-015 3.37934e-015
rhumerus -3.76406 38.2803 -88.2866
rradius 132.816
rwrist -5.70542
rhand -29.4927 -30.6304
rfingers 7.12502
rthumb -2.82756 -60.5914
lclavicle 5.1684e-015 3.37934e-015
lhumerus -12.4558 -54.6317 103.717
lradius 127.281
lwrist 24.8765
lhand -20.3309 -41.1084
lfingers 7.12502
lthumb 6.02039 -11.2139
rfemur -7.77422 0.818479 14.9089
rtibia 5.04831
rfoot -15.9695 -13.6985
rtoes -10.8739
lfemur -21.6113 -1.07102 -13.0092
ltibia 26.9333
lfoot -16.1897 7.12257
ltoes -56.7075
380
root -0.651445 18.8089 5.12544 10.4116 -0.624998 -0.768764
lowerback 23.0078 0.0150831 1.95774
upperback 6.92805 0.506406 0.838213
thorax -5.22035 0.238324 -0.348771
lowerneck -19.2853 -1.80881 -2.34271
upperneck 16.1189 -2.27918 2.34449
head 8.23004 -0.976348 0.883746
rclavicle -3.57812e-015 1.59028e-015
rhumerus -4.23887 39.0853 -88.8225
rradius 132.768
rwrist -4.77979
rhand -30.0821 -31.0367
rfingers 7.12502
rthumb -3.39677 -60.9893
lclavicle -3.57812e-015 1.59028e-015
lhumerus -10.4876 -53.7536 102.006
lradius 127.431
lwrist 25.3231
lhand -18.8491 -41.2248
lfingers 7.12502
lthumb 7.45085 -11.3761
rfemur -8.00213 1.09127 14.7462
rtibia 5.51138
rfoot -16.1599 -13.5872
rtoes -10.8242
lfemur -21.4757 -0.801393 -13.1843
ltibia 26.9152
lfoot -16.2008 7.10414
ltoes -56.7547
381
root -0.661488 18.809 5.12447 10.4019 -0.964785 -0.741798
lowerback 23.1381 0.267665 1.89646
upperback 6.81014 0.813513 0.72473
thorax -5.40799 0.384717 -0.520115
lowerneck -19.1381 -1.9132 -2.41477
upperneck 16.2299 -2.43451 2.48179
head 8.24867 -1.04035 0.922916
rclavicle 8.94531e-015 -7.95139e-016
rhumerus -5.9601 40.3161 -90.657
rradius 132.96
rwrist -3.40707
rhand -29.6841 -30.3632
rfingers 7.12502
rthumb -3.01236 -60.3217
lclavicle 8.94531e-015 -7.95139e-016
lhumerus -8.23097 -52.6873 100.127
lradius 127.557
lwrist 25.6762
lhand -19.6033 -40.4966
lfingers 7.12502
lthumb 6.7228 -10.6233
rfemur -8.23378 1.40914 14.7141
rtibia 5.87993
rfoot -16.2454 -13.5335
rtoes -11.3952
lfemur -21.3728 -0.389061 -13.2309
ltibia 26.8807
lfoot -16.1693 7.00115
ltoes -56.8393
382
root -0.676752 18.8099 5.12577 10.4409 -1.26973 -0.777245
lowerback 23.3801 0.506857 1.85668
upperback 6.55795 1.11316 0.615333
thorax -5.79785 0.524134 -0.701888
lowerneck -18.9284 -2.0137 -2.44711
upperneck 16.4297 -2.60175 2.63029
head 8.2867 -1.10639 0.958398
rclavicle -5.1684e-015 4.77083e-015
rhumerus -8.31108 42.2994 -91.769
rradius 132.826
rwrist -2.72822
rhand -30.5027 -29.6252
rfingers 7.12502
rthumb -3.80294 -59.571
lclavicle -5.1684e-015 4.77083e-015
lhumerus -6.15031 -51.4663 98.3533
lradius 127.673
lwrist 25.9439
lhand -20.7167 -39.8753
lfingers 7.12502
lthumb 5.64784 -9.9706
rfemur -8.43798 1.70405 14.7645
rtibia 6.11427
rfoot -16.2712 -13.5123
rtoes -11.9191
lfemur -21.3093 -0.0578734 -13.1814
ltibia 26.8304
lfoot -16.1355 6.9704
ltoes -56.8952
